[Header]
FileType HTR
DataType HTRS
FileVersion 1
NumSegments 22
NumFrames 7
DataFrameRate 24
EulerRotationOrder ZYX
CalibrationUnits mm
RotationUnits Degrees
GlobalAxisofGravity Y
BoneLengthAxis Y
ScaleFactor 1.0
[SegmentNames&Hierarchy]
reference	GLOBAL
Hips	reference
Spine	Hips
Spine1	Spine
Neck	Spine1
Head	Neck
LeftShoulder	Spine1
LeftArm	LeftShoulder
LeftForeArm	LeftArm
LeftHand	LeftForeArm
RightShoulder	Spine1
RightArm	RightShoulder
RightForeArm	RightArm
RightHand	RightForeArm
LeftUpLeg	Hips
LeftLeg	LeftUpLeg
LeftFoot	LeftLeg
LeftToeBase	LeftFoot
RightUpLeg	Hips
RightLeg	RightUpLeg
RightFoot	RightLeg
RightToeBase	RightFoot
[BasePosition]
reference	0	0	0	0	0	0	1
Hips	0	0	0	0	0	0	1
Spine	0	0	0	-0	-90	0	1
Spine1	0	0	0	0	0	0	1
Neck	0	0	0	82.64767223	-82.64767223	-90	1
Head	0	0	0	-0	-90	0	1
LeftShoulder	0	0	0	0	0	0	1
LeftArm	0	0	0	0	0	0	1
LeftForeArm	0	0	0	0	0	0	1
LeftHand	0	0	0	0	0	0	1
RightShoulder	0	0	0	0	-0	180	1
RightArm	0	0	0	0	-0	180	1
RightForeArm	0	0	0	0	-0	180	1
RightHand	0	0	0	0	-0	180	1
LeftUpLeg	0	0	0	-0	90	0	1
LeftLeg	0	0	0	-0	90	0	1
LeftFoot	0	0	0	-23.42853957	23.42853957	-90	1
LeftToeBase	0	0	0	0	-0	-90	1
RightUpLeg	0	0	0	-0	90	0	1
RightLeg	0	0	0	-0	90	0	1
RightFoot	0	0	0	-23.42853957	23.42853957	-90	1
RightToeBase	0	0	0	0	-0	-90	1
[reference]
1	0	0	0	0	-0	0	1.0
2	0	0	0	0	-0	0	1.0
3	0	0	0	0	-0	0	1.0
4	0	0	0	0	-0	0	1.0
5	0	0	0	0	-0	0	1.0
6	0	0	0	0	-0	0	1.0
7	0	0	0	0	-0	0	1.0
[Hips]
1	4.586750031	-0.6938899755	8.252440453	2.615641117	0.2700793147	-98.33029938	1.0
2	4.591888905	-0.6938899755	8.249055862	3.012868881	0.3166325092	-98.33672333	1.0
3	4.665216923	-0.6938899755	8.179121971	5.074416161	0.2177769542	-98.78377533	1.0
4	4.763796806	-0.6938899755	8.076210976	7.552201271	0.3034217358	-99.53149414	1.0
5	4.851530075	-0.6938899755	7.907950401	9.922130585	0.2506166101	-100.3839035	1.0
6	4.91317749	-0.6938899755	7.736778736	12.55284691	0.1794483513	-100.693924	1.0
7	5.00218153	-0.6938899755	7.368335247	16.18532181	-0.2003249526	-100.293045	1.0
[Spine]
1	0	0	0.7457100153	-20.82602882	88.65887451	-14.68539906	1.0
2	0	0	0.7457100153	-17.0897522	88.56474304	-11.41898251	1.0
3	0	0	0.7457100153	2.552512169	88.40606689	6.489337444	1.0
4	0	0	0.7457100153	28.07316017	88.32868958	29.73264313	1.0
5	0	0	0.7457100153	50.73800278	88.1436615	49.91836929	1.0
6	0	0	0.7457100153	63.98950195	88.03288269	62.45057678	1.0
7	0	0	0.7457100153	67.30892944	88.0716629	65.44065857	1.0
[Spine1]
1	0	0	2.140589952	5.708886147	1.910184622	-0.03602709994	1.0
2	0	0	2.140589952	5.204291821	1.934247255	-0.02374007367	1.0
3	0	0	2.140589952	2.92356658	2.147209406	0.1046903059	1.0
4	0	0	2.140589952	-0.1018376946	2.008744717	0.2810868323	1.0
5	0	0	2.140589952	-3.193565369	2.147565842	0.4323526025	1.0
6	0	0	2.140589952	-5.575091362	2.203605413	0.4959315062	1.0
7	0	0	2.140589952	-7.664678574	2.750692129	0.4298217297	1.0
[Neck]
1	0	0	2.32246995	73.8549881	79.33932495	76.01315308	1.0
2	0	0	2.32246995	72.98995209	79.37651062	75.53923035	1.0
3	0	0	2.32246995	70.56394958	79.3239975	75.12605286	1.0
4	0	0	2.32246995	68.12008667	79.27973938	75.67835236	1.0
5	0	0	2.32246995	62.4404068	79.10133362	74.3973465	1.0
6	0	0	2.32246995	60.76897049	79.0532074	74.8294754	1.0
7	0	0	2.32246995	57.76963043	79.26754761	75.36856079	1.0
[Head]
1	0	-0.1818799973	1.409579992	-92.11608887	93.19341278	-75.57107544	1.0
2	0	-0.1818799973	1.409579992	-88.44709778	93.18464661	-71.80126953	1.0
3	0	-0.1818799973	1.409579992	-81.69400787	93.33202362	-64.95589447	1.0
4	0	-0.1818799973	1.409579992	-80.46612549	93.36338806	-64.42539978	1.0
5	0	-0.1818799973	1.409579992	-77.47734833	93.44248199	-64.25027466	1.0
6	0	-0.1818799973	1.409579992	-79.50263977	93.41862488	-66.99987793	1.0
7	0	-0.1818799973	1.409579992	-84.00469971	93.03178406	-72.41079712	1.0
[LeftShoulder]
1	0.3668199778	0.02662999928	1.946700096	-11.19574547	-4.003919601	-8.544471741	1.0
2	0.3668199778	0.02662999928	1.946700096	-11.11211967	-3.988369465	-8.574995995	1.0
3	0.3668199778	0.02662999928	1.946700096	-11.03483295	-4.24512434	-8.508987427	1.0
4	0.3668199778	0.02662999928	1.946700096	-10.83489227	-4.627767086	-8.193276405	1.0
5	0.3668199778	0.02662999928	1.946700096	-11.00784016	-5.224012375	-7.340167522	1.0
6	0.3668199778	0.02662999928	1.946700096	-11.06181812	-5.36721611	-7.067434788	1.0
7	0.3668199778	0.02662999928	1.946700096	-13.21759033	-5.135780334	-6.590197563	1.0
[LeftArm]
1	1.140689969	0	0	87.38134766	78.53134918	45.26801682	1.0
2	1.140689969	0	0	87.3298111	78.62619781	45.16845322	1.0
3	1.140689969	0	0	87.92694855	78.67304993	45.88303375	1.0
4	1.140689969	0	0	88.15975952	78.65287018	46.72052765	1.0
5	1.140689969	0	0	87.67249298	78.20857239	48.3524971	1.0
6	1.140689969	0	0	85.46813202	77.49884796	47.7853241	1.0
7	1.140689969	0	0	79.91664124	76.51628113	41.30197906	1.0
[LeftForeArm]
1	2.749800205	0	0	-14.74627399	2.493350744	-14.39487076	1.0
2	2.749800205	0	0	-14.59078979	2.387812138	-14.63070774	1.0
3	2.749800205	0	0	-13.98834324	1.997739315	-16.07223129	1.0
4	2.749800205	0	0	-13.90947914	1.374657273	-18.25136185	1.0
5	2.749800205	0	0	-12.08957005	1.776005864	-20.8740921	1.0
6	2.749800205	0	0	-11.78155899	1.739324808	-23.24322128	1.0
7	2.749800205	0	0	-11.6326313	0.8724883795	-26.15138245	1.0
[LeftHand]
1	2.295179844	0	0	-14.63708305	3.83165884	-6.140216827	1.0
2	2.295179844	0	0	-14.48291969	3.723859787	-6.119385242	1.0
3	2.295179844	0	0	-13.89334679	3.190261841	-6.534838676	1.0
4	2.295179844	0	0	-13.86448288	2.771727085	-7.209838867	1.0
5	2.295179844	0	0	-11.81656361	0.7457939982	-8.279860497	1.0
6	2.295179844	0	0	-11.43284225	0.1380061507	-9.158512115	1.0
7	2.295179844	0	0	-11.13259697	-2.927386761	-11.49866581	1.0
[RightShoulder]
1	-0.3601199985	0.02662999928	1.946700096	-8.431796074	2.41825366	-171.5337372	1.0
2	-0.3601199985	0.02662999928	1.946700096	-8.323587418	2.453561783	-171.4873657	1.0
3	-0.3601199985	0.02662999928	1.946700096	-8.266454697	2.749653816	-171.2991486	1.0
4	-0.3601199985	0.02662999928	1.946700096	-8.272256851	3.105306864	-171.2696381	1.0
5	-0.3601199985	0.02662999928	1.946700096	-8.46846199	3.20970726	-171.1105957	1.0
6	-0.3601199985	0.02662999928	1.946700096	-8.835245132	3.175201416	-171.0923157	1.0
7	-0.3601199985	0.02662999928	1.946700096	-10.61927986	2.869779348	-170.7874756	1.0
[RightArm]
1	-1.140689969	0	0	-96.88085175	-98.64285278	-35.55990601	1.0
2	-1.140689969	0	0	-97.63745117	-98.64955139	-34.95227814	1.0
3	-1.140689969	0	0	-97.37500763	-98.65616608	-35.40764999	1.0
4	-1.140689969	0	0	-96.48479462	-98.73805237	-36.15792084	1.0
5	-1.140689969	0	0	-95.36032104	-99.13442993	-37.32000732	1.0
6	-1.140689969	0	0	-93.82551575	-99.58450317	-38.44996262	1.0
7	-1.140689969	0	0	-93.76280212	-99.30374146	-36.60771179	1.0
[RightForeArm]
1	-2.749800205	0	0	0.5419865251	1.866368532	-164.1670074	1.0
2	-2.749800205	0	0	0.6580893993	1.869894385	-163.7620239	1.0
3	-2.749800205	0	0	1.139847159	2.135962725	-162.1709442	1.0
4	-2.749800205	0	0	1.715892076	2.52807188	-160.1546783	1.0
5	-2.749800205	0	0	2.434163332	3.053673267	-157.8431396	1.0
6	-2.749800205	0	0	2.400570869	3.755521536	-156.3761902	1.0
7	-2.749800205	0	0	0.6219526529	6.67411232	-156.2359314	1.0
[RightHand]
1	-2.295179844	0	0	0.4270039201	2.056134939	-171.9599915	1.0
2	-2.295179844	0	0	0.5547425747	2.313080072	-171.9284821	1.0
3	-2.295179844	0	0	0.9943419695	2.582352161	-171.5766296	1.0
4	-2.295179844	0	0	1.54889369	3.560896397	-171.1684723	1.0
5	-2.295179844	0	0	2.259494543	5.263780117	-170.8079224	1.0
6	-2.295179844	0	0	2.141880989	6.156654835	-170.1894836	1.0
7	-2.295179844	0	0	0.007389247417	8.408967018	-169.3831482	1.0
[LeftUpLeg]
1	0.9094099998	0	0	-70.25251007	-95.38832855	64.33345795	1.0
2	0.9094099998	0	0	-68.23573303	-95.10464478	60.97154999	1.0
3	0.9094099998	0	0	-61.29985046	-94.73796082	48.19593048	1.0
4	0.9094099998	0	0	-47.20093536	-94.99636841	27.19509315	1.0
5	0.9094099998	0	0	-35.71455383	-95.78805542	8.86289978	1.0
6	0.9094099998	0	0	-27.88578987	-96.27980042	-5.3197999	1.0
7	0.9094099998	0	0	-2.596685886	-95.48405457	-40.90838623	1.0
[LeftLeg]
1	0	0	-4.498080254	60.34167862	-84.62133026	-40.03801346	1.0
2	0	0	-4.498080254	61.44927979	-84.1612854	-39.36589813	1.0
3	0	0	-4.498080254	58.96670532	-82.02545929	-29.94125366	1.0
4	0	0	-4.498080254	55.85530472	-78.61925507	-18.81642151	1.0
5	0	0	-4.498080254	54.06285858	-74.90219116	-8.914132118	1.0
6	0	0	-4.498080254	57.01246643	-71.56884766	-4.856279373	1.0
7	0	0	-4.498080254	68.13156891	-68.56999207	-3.219059944	1.0
[LeftFoot]
1	0	0	-3.729400158	-61.91381073	-10.33927155	110.8290482	1.0
2	0	0	-3.729400158	-62.26296234	-10.19007111	110.6621628	1.0
3	0	0	-3.729400158	-63.83065796	-8.816659927	110.6974182	1.0
4	0	0	-3.729400158	-65.45462799	-6.712026119	111.1547852	1.0
5	0	0	-3.729400158	-67.12622833	-5.308309555	111.3836517	1.0
6	0	0	-3.729400158	-68.51176453	-3.733739853	112.0259552	1.0
7	0	0	-3.729400158	-70.76156616	-1.605308175	112.0942993	1.0
[LeftToeBase]
1	0	-1.364109993	-0.5911099911	9.999999975e-007	0	0	1.0
2	0	-1.364109993	-0.5911099911	9.999999975e-007	0	0	1.0
3	0	-1.364109993	-0.5911099911	9.999999975e-007	0	0	1.0
4	0	-1.364109993	-0.5911099911	9.999999975e-007	0	0	1.0
5	0	-1.364109993	-0.5911099911	9.999999975e-007	0	0	1.0
6	0	-1.364109993	-0.5911099911	9.999999975e-007	0	0	1.0
7	0	-1.364109993	-0.5911099911	9.999999975e-007	0	0	1.0
[RightUpLeg]
1	-0.9094099998	0	0	-79.21165466	-101.0216599	78.20236969	1.0
2	-0.9094099998	0	0	-79.64202881	-102.3324585	77.06610107	1.0
3	-0.9094099998	0	0	-84.08354187	-107.4006729	74.81892395	1.0
4	-0.9094099998	0	0	-86.50852966	-111.0470123	69.56793213	1.0
5	-0.9094099998	0	0	-85.86003113	-112.1006546	61.14959717	1.0
6	-0.9094099998	0	0	-87.17040253	-111.8592606	55.33134079	1.0
7	-0.9094099998	0	0	-92.64611816	-113.5700302	48.87880707	1.0
[RightLeg]
1	0	0	-4.498080254	44.04486847	-87.00546265	-32.91474152	1.0
2	0	0	-4.498080254	45.50836182	-85.67363739	-32.18847275	1.0
3	0	0	-4.498080254	27.61580658	-83.10891724	-6.197568893	1.0
4	0	0	-4.498080254	6.286158562	-80.60764313	24.27122498	1.0
5	0	0	-4.498080254	17.72630692	-75.23591614	21.86491776	1.0
6	0	0	-4.498080254	27.92194939	-72.33860016	19.98789024	1.0
7	0	0	-4.498080254	36.05940247	-67.70874786	26.70262527	1.0
[RightFoot]
1	0	0	-3.729400158	-50.08207321	-29.87870789	80.86183167	1.0
2	0	0	-3.729400158	-50.89416885	-30.06718063	80.94316101	1.0
3	0	0	-3.729400158	-54.41009521	-30.76368523	83.24868774	1.0
4	0	0	-3.729400158	-57.73313522	-32.44473648	85.9490509	1.0
5	0	0	-3.729400158	-62.18931198	-33.96899033	92.22054291	1.0
6	0	0	-3.729400158	-65.3782196	-35.03963852	97.13465881	1.0
7	0	0	-3.729400158	-68.52624512	-35.8575592	103.6890869	1.0
[RightToeBase]
1	0	-1.364109993	-0.5911099911	9.999999975e-007	0	0	1.0
2	0	-1.364109993	-0.5911099911	9.999999975e-007	0	0	1.0
3	0	-1.364109993	-0.5911099911	9.999999975e-007	0	0	1.0
4	0	-1.364109993	-0.5911099911	9.999999975e-007	0	0	1.0
5	0	-1.364109993	-0.5911099911	9.999999975e-007	0	0	1.0
6	0	-1.364109993	-0.5911099911	9.999999975e-007	0	0	1.0
7	0	-1.364109993	-0.5911099911	9.999999975e-007	0	0	1.0
[EndOfFile]
